<svg width="30" height="30" viewBox="0 0 30 30" fill="none" xmlns="http://www.w3.org/2000/svg">
<path d="M8.57142 17.1428H4.28574C1.91892 17.1428 0 19.0617 0 21.4285V25.7143C0 28.081 1.91892 30 4.28574 30H8.57142C10.9382 30 12.8572 28.081 12.8572 25.7142V21.4285C12.8572 19.0617 10.9382 17.1428 8.57142 17.1428ZM8.57142 0H4.28574C1.91892 0 0 1.91892 0 4.28573V8.57146C0 10.9382 1.91892 12.8571 4.28574 12.8571H8.57142C10.9382 12.8571 12.8572 10.9382 12.8572 8.57146V4.28573C12.8572 1.91892 10.9382 0 8.57142 0ZM25.7143 17.1428H21.4285C19.0618 17.1428 17.1428 19.0617 17.1428 21.4285V25.7143C17.1428 28.081 19.0617 30 21.4285 30H25.7143C28.0811 30 30 28.081 30 25.7142V21.4285C30 19.0617 28.0811 17.1428 25.7143 17.1428ZM25.7143 0H21.4285C19.0618 0 17.1428 1.91892 17.1428 4.28573V8.57146C17.1428 10.9382 19.0617 12.8571 21.4285 12.8571H25.7143C28.081 12.8571 30 10.9382 30 8.57146V4.28573C30 1.91892 28.0811 0 25.7143 0Z" fill="white"/>
</svg>
