<svg width="56" height="60" viewBox="0 0 56 60" fill="none" xmlns="http://www.w3.org/2000/svg">
<path d="M54.5431 9.84397C53.6959 8.99575 52.6906 8.57158 51.53 8.57158H47.2448V5.35718C47.2448 3.88425 46.7198 2.623 45.6708 1.5739C44.6212 0.524788 43.3606 0 41.887 0H39.7447C38.2712 0 37.0102 0.524788 35.9611 1.57401C34.9116 2.623 34.3871 3.88437 34.3871 5.3573V8.5717H21.5306V5.3573C21.5306 3.88437 21.0058 2.62312 19.9566 1.57401C18.9076 0.524788 17.6465 0 16.173 0H14.0303C12.5572 0 11.2959 0.524788 10.2467 1.57401C9.1977 2.623 8.67279 3.88437 8.67279 5.3573V8.5717H4.38747C3.22649 8.5717 2.22218 8.99587 1.37395 9.84409C0.525732 10.6922 0.101562 11.697 0.101562 12.8576V55.7147C0.101562 56.8745 0.525732 57.879 1.37395 58.7277C2.22206 59.5757 3.22637 60 4.38747 60H51.5292C52.6898 60 53.6952 59.5758 54.5423 58.7277C55.3907 57.8794 55.8149 56.8744 55.8149 55.7147V12.8575C55.8148 11.6965 55.391 10.6922 54.5431 9.84397ZM14.03 55.7141H4.38747V46.0709H14.03V55.7141ZM14.03 43.9286H4.38747V33.2149H14.03V43.9286ZM14.03 31.0711H4.38747V21.4287H14.03V31.0711ZM13.2771 15.7534C13.0649 15.5412 12.959 15.2906 12.959 15.0001V5.35765C12.959 5.06752 13.0649 4.81621 13.2771 4.60441C13.4892 4.39227 13.7398 4.28638 14.0303 4.28638H16.173C16.4631 4.28638 16.7144 4.39227 16.9262 4.60441C17.1384 4.81632 17.2445 5.06752 17.2445 5.35765V15.0001C17.2445 15.2907 17.1379 15.5414 16.9262 15.7534C16.7143 15.9655 16.4635 16.0714 16.173 16.0714H14.0303C13.7402 16.0715 13.4892 15.9655 13.2771 15.7534ZM26.8871 55.7141H16.1726V46.0709H26.8871V55.7141ZM26.8871 43.9286H16.1726V33.2149H26.8871V43.9286ZM26.8871 31.0711H16.1726V21.4287H26.8871V31.0711ZM39.7447 55.7141H29.0303V46.0709H39.7447V55.7141ZM39.7447 43.9286H29.0303V33.2149H39.7447V43.9286ZM39.7447 31.0711H29.0303V21.4287H39.7447V31.0711ZM38.991 15.7534C38.7791 15.5412 38.6735 15.2906 38.6735 15.0001V5.35765C38.6735 5.06752 38.7791 4.81621 38.991 4.60441C39.203 4.39227 39.4541 4.28638 39.7447 4.28638H41.887C42.1776 4.28638 42.4285 4.39227 42.6407 4.60441C42.8527 4.81632 42.9582 5.06752 42.9582 5.35765V15.0001C42.9582 15.2907 42.8523 15.5414 42.6407 15.7534C42.4288 15.9655 42.1776 16.0714 41.887 16.0714H39.7447C39.4542 16.0715 39.2022 15.9655 38.991 15.7534ZM51.5292 55.7141H41.8862V46.0709H51.5292V55.7141ZM51.5292 43.9286H41.8862V33.2149H51.5292V43.9286ZM51.5292 31.0711H41.8862V21.4287H51.5292V31.0711Z" fill="#43BF6A"/>
</svg>
