<svg width="34" height="30" viewBox="0 0 34 30" fill="none" xmlns="http://www.w3.org/2000/svg">
<path d="M25.3342 3.82894H31.9999M2 3.82894H15.7995M25.3342 26.3658H31.9999M2 26.3658H15.7995M8.6657 15.0974H2M32.0004 15.0974H18.2009M25.4123 3.82895C25.4123 4.83905 24.5935 5.6579 23.5834 5.6579C22.5733 5.6579 21.7544 4.83905 21.7544 3.82895C21.7544 2.81885 22.5733 2 23.5834 2C24.5935 2 25.4123 2.81885 25.4123 3.82895ZM25.4123 26.3658C25.4123 27.3759 24.5935 28.1947 23.5834 28.1947C22.5733 28.1947 21.7544 27.3759 21.7544 26.3658C21.7544 25.3557 22.5733 24.5368 23.5834 24.5368C24.5935 24.5368 25.4123 25.3557 25.4123 26.3658ZM12.2453 15.0974C12.2453 16.1075 11.4264 16.9263 10.4163 16.9263C9.4062 16.9263 8.58735 16.1075 8.58735 15.0974C8.58735 14.0873 9.4062 13.2684 10.4163 13.2684C11.4264 13.2684 12.2453 14.0873 12.2453 15.0974Z" stroke="#43BF6A" stroke-width="3" stroke-linecap="round" stroke-linejoin="round"/>
</svg>
