<svg width="60" height="60" viewBox="0 0 60 60" fill="none" xmlns="http://www.w3.org/2000/svg">
<path d="M30 19.0909C32.8933 19.0909 35.668 20.2403 37.7139 22.2861C39.7597 24.332 40.9091 27.1067 40.9091 30C40.9091 32.8933 39.7597 35.668 37.7139 37.7139C35.668 39.7597 32.8933 40.9091 30 40.9091C27.1067 40.9091 24.332 39.7597 22.2861 37.7139C20.2403 35.668 19.0909 32.8933 19.0909 30C19.0909 27.1067 20.2403 24.332 22.2861 22.2861C24.332 20.2403 27.1067 19.0909 30 19.0909ZM5.59091 32.7273H0V27.2727H5.59091C6.81818 15.9 15.9 6.81818 27.2727 5.59091V0H32.7273V5.59091C44.1 6.81818 53.1818 15.9 54.4091 27.2727H60V32.7273H54.4091C53.1818 44.1 44.1 53.1818 32.7273 54.4091V60H27.2727V54.4091C15.9 53.1818 6.81818 44.1 5.59091 32.7273ZM30 10.9091C24.9368 10.9091 20.0809 12.9204 16.5007 16.5007C12.9204 20.0809 10.9091 24.9368 10.9091 30C10.9091 35.0632 12.9204 39.9191 16.5007 43.4993C20.0809 47.0796 24.9368 49.0909 30 49.0909C35.0632 49.0909 39.9191 47.0796 43.4993 43.4993C47.0796 39.9191 49.0909 35.0632 49.0909 30C49.0909 24.9368 47.0796 20.0809 43.4993 16.5007C39.9191 12.9204 35.0632 10.9091 30 10.9091Z" fill="#43BF6A"/>
</svg>
