<svg width="42" height="60" viewBox="0 0 42 60" fill="none" xmlns="http://www.w3.org/2000/svg">
<path d="M41.5923 38.9868C41.5923 26.2439 27.1334 6.71225 22.4263 0.70179C22.2506 0.482762 22.0279 0.305992 21.7748 0.184526C21.5216 0.0630601 21.2444 0 20.9636 0C20.6828 0 20.4055 0.0630601 20.1524 0.184526C19.8992 0.305992 19.6765 0.482762 19.5008 0.70179C14.7937 6.71225 0.334838 26.2439 0.334838 38.9868C0.284868 44.5086 2.42993 49.8242 6.29835 53.7647C10.1668 57.7052 15.4418 59.948 20.9636 60C26.4853 59.948 31.7604 57.7052 35.6288 53.7647C39.4972 49.8242 41.6423 44.5086 41.5923 38.9868Z" fill="#43BF6A"/>
<path d="M33.3783 47.5759C31.8641 49.8574 29.7501 51.6773 27.2686 52.8353C24.7872 53.9933 22.0345 54.4446 19.3133 54.1396C15.9028 53.7238 12.7339 52.1641 10.3242 49.7151C7.91438 47.2662 6.40599 44.0726 6.04524 40.6559C5.73851 37.9086 6.17847 35.1294 7.31877 32.6112C8.45907 30.0929 10.2575 27.9289 12.5245 26.347C12.7062 26.2191 12.9201 26.1446 13.142 26.1319C13.3638 26.1192 13.5848 26.1688 13.7799 26.2752C13.975 26.3815 14.1365 26.5403 14.246 26.7336C14.3556 26.927 14.4089 27.1471 14.3999 27.3691C14.3999 27.4254 14.3999 27.4785 14.3999 27.5285C14.3714 29.8915 14.8104 32.2369 15.6916 34.4296C16.5728 36.6224 17.8788 38.6193 19.5345 40.3055C21.1902 41.9917 23.1629 43.3339 25.3392 44.255C27.5155 45.176 29.8525 45.6578 32.2156 45.6724H32.375C32.596 45.6734 32.8126 45.7344 33.0017 45.849C33.1907 45.9636 33.345 46.1274 33.448 46.323C33.5511 46.5185 33.599 46.7384 33.5868 46.9591C33.5745 47.1798 33.5024 47.393 33.3783 47.5759Z" fill="white"/>
</svg>
