<svg width="115" height="100" viewBox="0 0 115 100" fill="none" xmlns="http://www.w3.org/2000/svg">
<path fill-rule="evenodd" clip-rule="evenodd" d="M88.5712 32.4387L62.1426 58.2628V99.5816H115V58.2628L88.5712 32.4387ZM85.9997 59.696H73.1426V72.5533H85.9997V59.696ZM104 59.696H91.1426V72.5533H104V59.696ZM73.1426 77.6958H85.9997V90.5531H73.1426V77.6958ZM104 77.6958H91.1426V90.5531H104V77.6958Z" fill="white"/>
<path fill-rule="evenodd" clip-rule="evenodd" d="M25.7147 32.4387L-0.713867 58.2628V99.5816H52.1433V58.2628L25.7147 32.4387ZM23.1433 59.696H10.2861V72.5533H23.1433V59.696ZM41.1433 59.696H28.2861V72.5533H41.1433V59.696ZM10.2861 77.6958H23.1433V90.5531H10.2861V77.6958ZM41.1433 77.6958H28.2861V90.5531H41.1433V77.6958Z" fill="white"/>
<path fill-rule="evenodd" clip-rule="evenodd" d="M57.1469 0L85.9361 28.7893L57.1469 57.5787L28.3574 28.7893L57.1469 0ZM30.3777 28.7893L56.4321 54.8437L56.4306 48.8173L39.8598 32.2467C39.5808 31.9677 39.5808 31.5154 39.8597 31.2366C40.1387 30.9576 40.591 30.9576 40.87 31.2366L56.43 46.7964L56.4213 13.5373C56.4211 13.1428 56.7408 12.8229 57.1354 12.8228C57.5298 12.8227 57.8497 13.1424 57.8498 13.5369L57.8534 27.2086L66.6177 18.4441C66.8967 18.1653 67.349 18.1651 67.6278 18.4441C67.9068 18.7231 67.9068 19.1754 67.6278 19.4543L57.8866 29.1957C57.876 29.2064 57.8651 29.2166 57.854 29.2264L57.8607 54.8446L83.9158 28.7893L57.1469 2.0203L30.3777 28.7893Z" fill="white"/>
</svg>
