<svg width="30" height="25" viewBox="0 0 30 25" fill="none" xmlns="http://www.w3.org/2000/svg">
<path d="M27.0133 24.0985H2.5981C1.02714 24.0985 0 22.9238 0 21.4247V7.91375C0 6.35851 1.08 5.04471 2.5981 5.04471H9.81476L10.36 2.45232C10.6814 1.16328 11.8186 0.281372 13.1314 0.281372H16.7395C18.0524 0.281372 19.19 1.16328 19.5052 2.42661L20.0557 5.04471H27.0133C28.5219 5.04471 30 6.35851 30 7.91375V21.4247C30 22.949 28.6005 24.0985 27.0133 24.0985ZM2.5981 6.47375C1.86667 6.47375 1.42857 7.14661 1.42857 7.91375V21.4247C1.42857 22.1461 1.80238 22.6695 2.5981 22.6695H27.0133C27.7986 22.6695 28.5714 22.1461 28.5714 21.4247V7.91375C28.5714 7.14661 27.7352 6.47375 27.0133 6.47375H19.4757C19.1376 6.47375 18.8462 6.23709 18.7771 5.90661L18.1133 2.74661C17.9633 2.14756 17.3957 1.71042 16.7395 1.71042H13.1314C12.4752 1.71042 11.9081 2.14756 11.7519 2.77232L11.0938 5.90661C11.0243 6.23709 10.7329 6.47375 10.3948 6.47375H2.5981Z" fill="#383A40"/>
<path d="M14.6486 19.0857C12.0243 19.0857 9.88952 16.9499 9.88952 14.3257C9.88952 11.7004 12.0243 9.56518 14.6486 9.56518C17.2719 9.56518 19.4071 11.7004 19.4071 14.3257C19.4071 16.9499 17.2719 19.0857 14.6486 19.0857ZM14.6486 10.9942C12.8119 10.9942 11.3181 12.4885 11.3181 14.3257C11.3181 16.1623 12.8119 17.6566 14.6486 17.6566C16.4848 17.6566 17.9786 16.1623 17.9786 14.3257C17.9786 12.4885 16.4848 10.9942 14.6486 10.9942Z" fill="#383A40"/>
<path d="M14.6486 21.6376C10.6176 21.6376 7.3381 18.3571 7.3381 14.3257C7.3381 10.2933 10.6176 7.01328 14.6486 7.01328C18.679 7.01328 21.9581 10.2933 21.9581 14.3257C21.9581 18.3571 18.679 21.6376 14.6486 21.6376ZM14.6486 8.44185C11.4052 8.44185 8.76667 11.0814 8.76667 14.3257C8.76667 17.5695 11.4052 20.2085 14.6486 20.2085C17.8914 20.2085 20.5295 17.5695 20.5295 14.3257C20.5295 11.0814 17.8914 8.44185 14.6486 8.44185Z" fill="#383A40"/>
<path d="M8.3681 3.61566H4.55857C4.16429 3.61566 3.84429 3.29566 3.84429 2.90137C3.84429 2.50709 4.16429 2.18709 4.55857 2.18709H8.3681C8.76238 2.18709 9.08238 2.50709 9.08238 2.90137C9.08238 3.29566 8.76238 3.61566 8.3681 3.61566Z" fill="#383A40"/>
<path d="M23.5395 2.66328H23.8357C24.9686 2.66328 25.7143 3.55899 25.7143 4.69232V5.52137H21.9048V4.69232C21.9048 3.55899 22.4067 2.66328 23.5395 2.66328Z" fill="#383A40"/>
</svg>
