<svg width="60" height="60" viewBox="0 0 60 60" fill="none" xmlns="http://www.w3.org/2000/svg">
<path d="M52.5 0H37.5V7.5H48.75C50.8219 7.5 52.5 9.18 52.5 11.25V22.5H60V7.5C60 3.35814 56.6419 0 52.5 0ZM0 7.5V22.5H7.5V11.25C7.5 9.17814 9.17814 7.5 11.25 7.5H22.5V0H7.5C3.35814 0 0 3.35814 0 7.5ZM7.5 48.75V37.5H0V52.5C0 56.6419 3.35814 60 7.5 60H22.5V52.5H11.25C9.17814 52.5 7.5 50.8219 7.5 48.75ZM52.5 48.75C52.5 50.8219 50.8219 52.5 48.75 52.5H37.5V60H52.5C56.6419 60 60 56.6419 60 52.5V37.5H52.5V48.75Z" fill="#43BF6A"/>
<path d="M29.5384 44.778C27.1264 44.778 24.8044 44.472 22.5724 43.86C20.3764 43.212 18.6304 42.438 17.3344 41.538L19.9264 36.408C21.2224 37.236 22.7704 37.92 24.5704 38.46C26.3704 39 28.1704 39.27 29.9704 39.27C32.0944 39.27 33.6244 38.982 34.5604 38.406C35.5324 37.83 36.0184 37.056 36.0184 36.084C36.0184 35.292 35.6944 34.698 35.0464 34.302C34.3984 33.87 33.5524 33.546 32.5084 33.33C31.4644 33.114 30.2944 32.916 28.9984 32.736C27.7384 32.556 26.4604 32.322 25.1644 32.034C23.9044 31.71 22.7524 31.26 21.7084 30.684C20.6644 30.072 19.8184 29.262 19.1704 28.254C18.5224 27.246 18.1984 25.914 18.1984 24.258C18.1984 22.422 18.7204 20.838 19.7644 19.506C20.8084 18.138 22.2664 17.094 24.1384 16.374C26.0464 15.618 28.2964 15.24 30.8884 15.24C32.8324 15.24 34.7944 15.456 36.7744 15.888C38.7544 16.32 40.3924 16.932 41.6884 17.724L39.0964 22.854C37.7284 22.026 36.3424 21.468 34.9384 21.18C33.5704 20.856 32.2024 20.694 30.8344 20.694C28.7824 20.694 27.2524 21 26.2444 21.612C25.2724 22.224 24.7864 22.998 24.7864 23.934C24.7864 24.798 25.1104 25.446 25.7584 25.878C26.4064 26.31 27.2524 26.652 28.2964 26.904C29.3404 27.156 30.4924 27.372 31.7524 27.552C33.0484 27.696 34.3264 27.93 35.5864 28.254C36.8464 28.578 37.9984 29.028 39.0424 29.604C40.1224 30.144 40.9864 30.918 41.6344 31.926C42.2824 32.934 42.6064 34.248 42.6064 35.868C42.6064 37.668 42.0664 39.234 40.9864 40.566C39.9424 41.898 38.4484 42.942 36.5044 43.698C34.5604 44.418 32.2384 44.778 29.5384 44.778Z" fill="#43BF6A"/>
</svg>
