<svg width="60" height="60" viewBox="0 0 60 60" fill="none" xmlns="http://www.w3.org/2000/svg">
<path d="M17.1428 34.2856H8.57147C3.83784 34.2856 0 38.1235 0 42.8571V51.4285C0 56.1621 3.83784 59.9999 8.57147 59.9999H17.1428C21.8765 59.9999 25.7143 56.1621 25.7143 51.4284V42.857C25.7143 38.1235 21.8765 34.2856 17.1428 34.2856ZM17.1428 0H8.57147C3.83784 0 0 3.83784 0 8.57146V17.1429C0 21.8764 3.83784 25.7143 8.57147 25.7143H17.1428C21.8765 25.7143 25.7143 21.8764 25.7143 17.1429V8.57146C25.7143 3.83784 21.8765 0 17.1428 0ZM51.4285 34.2856H42.8571C38.1235 34.2856 34.2856 38.1235 34.2856 42.8571V51.4285C34.2856 56.1621 38.1234 60 42.8571 60H51.4285C56.1622 59.9999 60 56.1621 60 51.4284V42.857C60 38.1235 56.1622 34.2856 51.4285 34.2856ZM51.4285 0H42.8571C38.1235 0 34.2856 3.83784 34.2856 8.57146V17.1429C34.2856 21.8764 38.1234 25.7143 42.8571 25.7143H51.4285C56.1621 25.7143 60 21.8764 60 17.1429V8.57146C60 3.83784 56.1622 0 51.4285 0Z" fill="#43BF6A"/>
</svg>
