<svg width="60" height="60" viewBox="0 0 60 60" fill="none" xmlns="http://www.w3.org/2000/svg">
<path d="M50.6527 32.6906C52.1576 29.6719 53.0271 26.2894 53.0271 22.6988C53.0271 10.1625 42.7166 0 30 0C17.2815 0 6.97294 10.1626 6.97294 22.6987C6.97294 26.2894 7.84245 29.6718 9.34725 32.6905L0 48.6487C0 48.6487 5.92725 49.8374 11.9408 51.0768C15.9511 55.5431 19.9425 60 19.9425 60L28.5365 45.3263C29.0237 45.3563 29.5053 45.3993 30 45.3993C30.4947 45.3993 30.9782 45.3563 31.4635 45.3263L40.0574 60C40.0574 60 44.049 55.5449 48.0574 51.0788C54.0708 49.8394 60 48.6507 60 48.6507L50.6527 32.6906ZM19.4966 53.1937C19.4966 53.1937 16.6182 50.4638 13.9123 47.8312C10.0744 46.738 6.20098 45.6261 6.20098 45.6261L11.6335 36.3505C14.7668 40.4399 19.2624 43.4418 24.4644 44.7092L19.4966 53.1937ZM30 35.625C22.7553 35.625 16.8824 29.7488 16.8824 22.5C16.8824 15.2512 22.7553 9.37498 30 9.37498C37.2447 9.37498 43.1176 15.2512 43.1176 22.5C43.1176 29.7488 37.2447 35.625 30 35.625ZM46.0859 47.8312C43.3799 50.4618 40.5016 53.1937 40.5016 53.1937L35.5337 44.7112C40.7359 43.4436 45.2314 40.4418 48.3646 36.3524L53.7972 45.6281C53.7972 45.6281 49.9238 46.7381 46.0859 47.8312Z" fill="#43BF6A"/>
</svg>
