<svg width="60" height="60" viewBox="0 0 60 60" fill="none" xmlns="http://www.w3.org/2000/svg">
<path d="M52.5 0H37.5V7.5H48.75C50.8219 7.5 52.5 9.18 52.5 11.25V22.5H60V7.5C60 3.35814 56.6419 0 52.5 0ZM0 7.5V22.5H7.5V11.25C7.5 9.17814 9.17814 7.5 11.25 7.5H22.5V0H7.5C3.35814 0 0 3.35814 0 7.5ZM7.5 48.75V37.5H0V52.5C0 56.6419 3.35814 60 7.5 60H22.5V52.5H11.25C9.17814 52.5 7.5 50.8219 7.5 48.75ZM52.5 48.75C52.5 50.8219 50.8219 52.5 48.75 52.5H37.5V60H52.5C56.6419 60 60 56.6419 60 52.5V37.5H52.5V48.75Z" fill="#43BF6A"/>
</svg>
