<svg width="60" height="60" viewBox="0 0 60 60" fill="none" xmlns="http://www.w3.org/2000/svg">
<path d="M52.5 0H37.5V7.5H48.75C50.8219 7.5 52.5 9.18 52.5 11.25V22.5H60V7.5C60 3.35814 56.6419 0 52.5 0ZM0 7.5V22.5H7.5V11.25C7.5 9.17814 9.17814 7.5 11.25 7.5H22.5V0H7.5C3.35814 0 0 3.35814 0 7.5ZM7.5 48.75V37.5H0V52.5C0 56.6419 3.35814 60 7.5 60H22.5V52.5H11.25C9.17814 52.5 7.5 50.8219 7.5 48.75ZM52.5 48.75C52.5 50.8219 50.8219 52.5 48.75 52.5H37.5V60H52.5C56.6419 60 60 56.6419 60 52.5V37.5H52.5V48.75Z" fill="#43BF6A"/>
<path d="M19.858 44V16H31.9091C35.6212 16 38.5644 16.7867 40.7386 18.36C42.9129 19.9333 44 22.2933 44 25.44C44 28.56 42.9129 30.9067 40.7386 32.48C38.5644 34.0533 35.6212 34.84 31.9091 34.84H23.4375L26.3409 31.96V44H19.858ZM26.3409 32.64L23.4375 29.76H31.8693C33.6459 29.76 35.0246 29.4 36.0057 28.68C36.9868 27.9333 37.4773 26.8667 37.4773 25.48C37.4773 24.12 36.9868 23.08 36.0057 22.36C35.0246 21.64 33.6459 21.28 31.8693 21.28H23.4375L26.3409 18.2V32.64ZM16 40.4V37.08H34.9318V40.4H16Z" fill="#43BF6A"/>
</svg>
