<svg width="30" height="30" viewBox="0 0 30 30" fill="none" xmlns="http://www.w3.org/2000/svg">
<path d="M26.25 0H18.75V3.75H24.375C25.4109 3.75 26.25 4.59 26.25 5.625V11.25H30V3.75C30 1.67907 28.3209 0 26.25 0ZM0 3.75V11.25H3.75V5.625C3.75 4.58907 4.58907 3.75 5.625 3.75H11.25V0H3.75C1.67907 0 0 1.67907 0 3.75ZM3.75 24.375V18.75H0V26.25C0 28.3209 1.67907 30 3.75 30H11.25V26.25H5.625C4.58907 26.25 3.75 25.4109 3.75 24.375ZM26.25 24.375C26.25 25.4109 25.4109 26.25 24.375 26.25H18.75V30H26.25C28.3209 30 30 28.3209 30 26.25V18.75H26.25V24.375Z" fill="white"/>
</svg>
