<svg width="60" height="60" viewBox="0 0 60 60" fill="none" xmlns="http://www.w3.org/2000/svg">
<path d="M44.8628 29.5955L30.3579 15.1466C30.1625 14.9511 29.8459 14.9511 29.6504 15.1466L15.1451 29.5955C14.9496 29.7909 14.9536 30.103 15.1451 30.301C15.2431 30.402 15.3711 30.4534 15.4981 30.4545V30.4565H19.0001V44.4203C19.0001 44.5583 19.0561 44.6818 19.1466 44.7718C19.237 44.8628 19.362 44.9193 19.5 44.9193H26.4999C26.7759 44.9193 26.9999 44.6953 26.9999 44.4203V34.4474H32.9999V44.4203C32.9999 44.6948 33.2239 44.9193 33.4999 44.9193H40.4998C40.7758 44.9193 40.9998 44.6953 40.9998 44.4203V30.4565H44.5242C44.6553 30.459 44.7787 30.4075 44.8627 30.3015C45.0328 30.084 45.0583 29.7909 44.8628 29.5955Z" fill="#43BF6A"/>
<path d="M52.5 0H37.5V7.5H48.75C50.8219 7.5 52.5 9.18 52.5 11.25V22.5H60V7.5C60 3.35814 56.6419 0 52.5 0ZM0 7.5V22.5H7.5V11.25C7.5 9.17814 9.17814 7.5 11.25 7.5H22.5V0H7.5C3.35814 0 0 3.35814 0 7.5ZM7.5 48.75V37.5H0V52.5C0 56.6419 3.35814 60 7.5 60H22.5V52.5H11.25C9.17814 52.5 7.5 50.8219 7.5 48.75ZM52.5 48.75C52.5 50.8219 50.8219 52.5 48.75 52.5H37.5V60H52.5C56.6419 60 60 56.6419 60 52.5V37.5H52.5V48.75Z" fill="#43BF6A"/>
</svg>
