<svg width="30" height="30" viewBox="0 0 30 30" fill="none" xmlns="http://www.w3.org/2000/svg">
<path d="M25.3264 16.3453C26.0788 14.8359 26.5135 13.1447 26.5135 11.3494C26.5135 5.08124 21.3583 0 15 0C8.64074 0 3.48647 5.08129 3.48647 11.3494C3.48647 13.1447 3.92123 14.8359 4.67363 16.3453L0 24.3244C0 24.3244 2.96363 24.9187 5.97039 25.5384C7.97554 27.7715 9.97127 30 9.97127 30L14.2682 22.6631C14.5119 22.6781 14.7526 22.6997 15 22.6997C15.2474 22.6997 15.4891 22.6781 15.7318 22.6631L20.0287 30C20.0287 30 22.0245 27.7725 24.0287 25.5394C27.0354 24.9197 30 24.3253 30 24.3253L25.3264 16.3453ZM9.74828 26.5969C9.74828 26.5969 8.30912 25.2319 6.95613 23.9156C5.03721 23.369 3.10049 22.8131 3.10049 22.8131L5.81676 18.1753C7.38338 20.2199 9.63118 21.7209 12.2322 22.3546L9.74828 26.5969ZM15 17.8125C11.3776 17.8125 8.44118 14.8744 8.44118 11.25C8.44118 7.62561 11.3776 4.68749 15 4.68749C18.6224 4.68749 21.5588 7.62561 21.5588 11.25C21.5588 14.8744 18.6224 17.8125 15 17.8125ZM23.0429 23.9156C21.69 25.2309 20.2508 26.5969 20.2508 26.5969L17.7669 22.3556C20.3679 21.7218 22.6157 20.2209 24.1823 18.1762L26.8986 22.814C26.8986 22.814 24.9619 23.3691 23.0429 23.9156Z" fill="white"/>
</svg>
