<svg width="40" height="40" viewBox="0 0 40 40" fill="none" xmlns="http://www.w3.org/2000/svg">
<path d="M8.72396 4.73568C8.72396 5.10235 8.42396 5.40235 8.05729 5.40235C7.69063 5.40235 7.39063 5.10235 7.39063 4.73568C7.39063 4.36901 7.69063 4.06901 8.05729 4.06901C8.42396 4.06901 8.72396 4.36768 8.72396 4.73568Z" fill="white"/>
<path d="M19.6493 40C8.632 40 0 31.2147 0 20C0 15.1613 1.64933 10.5187 4.64667 6.928C4.884 6.64533 5.30267 6.60933 5.58533 6.844C5.868 7.08 5.90667 7.5 5.67067 7.78267C2.87333 11.1333 1.33333 15.472 1.33333 20C1.33333 30.468 9.37867 38.6667 19.6493 38.6667C30.136 38.6667 38.6667 30.2933 38.6667 20C38.6667 9.70667 30.136 1.33333 19.6493 1.33333C16.396 1.33333 13.232 2.16 10.5053 3.72267C10.1893 3.9 9.77867 3.79467 9.596 3.47467C9.41333 3.15467 9.524 2.748 9.844 2.564C12.772 0.886667 16.1627 0 19.6493 0C30.8707 0 40 8.972 40 20C40 31.028 30.8707 40 19.6493 40Z" fill="white"/>
<path d="M24.7336 30.6907C24.5856 30.6907 24.4349 30.6413 24.3123 30.54L16.6283 24.2453C16.4776 24.1227 16.3883 23.94 16.3829 23.7453C16.3789 23.5507 16.4589 23.3653 16.6029 23.2347L22.3056 18.088C22.5789 17.8387 23.0003 17.8627 23.2469 18.136C23.4949 18.4093 23.4723 18.8307 23.1989 19.0773L18.0709 23.704L25.1549 29.508C25.4403 29.7413 25.4816 30.1613 25.2483 30.4467C25.1176 30.6067 24.9256 30.6907 24.7336 30.6907Z" fill="white"/>
<path d="M25.5427 30.9388C25.1893 30.9388 24.8093 30.8281 24.4107 30.6081L20.0293 27.0868L17.784 29.1575C17.472 29.4628 17.0907 29.8335 16.332 29.8335C15.3987 29.8335 15.1813 29.3415 15.0387 28.8361C15.0133 28.7495 14.9853 28.6481 14.944 28.5321L13.336 23.2401L8.72804 21.8028C7.64271 21.4695 7.49737 20.8041 7.48537 20.5348C7.46671 20.0868 7.70004 19.4481 8.91737 18.9601L28.7147 11.3214C29.2813 11.1001 29.9467 11.2788 30.3307 11.7521C30.6013 12.0841 30.7053 12.5161 30.6173 12.9374L27.1973 29.3041C26.8907 30.7788 25.9373 30.9388 25.5427 30.9388ZM20 25.5401C20.148 25.5401 20.296 25.5895 20.4173 25.6881L25.1507 29.5041C25.7627 29.7961 25.8173 29.3908 25.8933 29.0321L29.3133 12.6668L29.2293 12.5588L9.40804 20.2015C9.17471 20.2948 9.02137 20.3868 8.92804 20.4548C8.97737 20.4788 9.04271 20.5041 9.12404 20.5295L14.072 22.0735C14.2813 22.1401 14.4467 22.3055 14.5107 22.5161L16.2093 28.1108C16.2533 28.2281 16.2907 28.3615 16.3227 28.4735C16.3253 28.4815 16.328 28.4908 16.3293 28.4988C16.5067 28.4975 16.6 28.4495 16.8467 28.2081L19.548 25.7148C19.676 25.6001 19.8373 25.5401 20 25.5401Z" fill="white"/>
</svg>
