<svg width="30" height="25" viewBox="0 0 30 25" fill="none" xmlns="http://www.w3.org/2000/svg">
<path d="M21.4286 19.1943C21.4286 21.6933 19.4033 23.7195 16.9048 23.7195H4.52381C2.02524 23.7195 0 21.6933 0 19.1943V11.5729C0 9.07381 2.02524 7.04762 4.52381 7.04762H16.9048C19.4033 7.04762 21.4286 9.07381 21.4286 11.5729V19.1943ZM20 11.5729C20 9.86286 18.6143 8.47667 16.9048 8.47667H4.52381C2.81429 8.47667 1.42857 9.86286 1.42857 11.5729V19.1943C1.42857 20.9043 2.81429 22.2905 4.52381 22.2905H16.9048C18.6143 22.2905 20 20.9043 20 19.1943V11.5729Z" fill="#383A40"/>
<path d="M28.1557 24.38C27.8338 24.38 27.4638 24.2881 27.1819 24.1138L20.4033 19.9314C20.1862 19.7971 20.0443 19.5562 20.0524 19.301L20.2614 12.7552C20.2686 12.52 20.3886 12.3038 20.5867 12.1767L27.111 7.99952C27.399 7.81619 27.8262 7.72 28.1557 7.72C29.1167 7.72 30 8.51571 30 9.49429V22.6052C30 23.5843 29.1162 24.38 28.1557 24.38ZM21.481 18.9343L27.9848 22.8986C28.1881 23.0257 28.5714 22.9024 28.5714 22.6052V9.49429C28.5714 9.19619 28.189 9.07048 27.9795 9.20429L21.721 13.1776L21.481 18.9343Z" fill="#383A40"/>
<path d="M14.1224 8.34714C12.2595 8.34714 10.7438 6.83095 10.7438 4.96762C10.7438 3.10381 12.2595 1.58762 14.1224 1.58762C15.9852 1.58762 17.5014 3.10381 17.5014 4.96762C17.5014 6.83095 15.9852 8.34714 14.1224 8.34714ZM14.1224 3.01667C13.0471 3.01667 12.1724 3.89143 12.1724 4.96762C12.1724 6.04286 13.0471 6.9181 14.1224 6.9181C15.1981 6.9181 16.0729 6.04286 16.0729 4.96762C16.0729 3.89143 15.1981 3.01667 14.1224 3.01667Z" fill="#383A40"/>
<path d="M8.03809 8.34714C5.73714 8.34714 3.86524 6.47476 3.86524 4.17333C3.86524 1.87238 5.73714 0 8.03809 0C10.3386 0 12.2105 1.87238 12.2105 4.17333C12.2105 6.47476 10.3386 8.34714 8.03809 8.34714ZM8.03809 1.42905C6.52476 1.42905 5.29381 2.66 5.29381 4.17333C5.29381 5.68667 6.52476 6.9181 8.03809 6.9181C9.55095 6.9181 10.7819 5.68667 10.7819 4.17333C10.7819 2.66 9.55095 1.42905 8.03809 1.42905Z" fill="#383A40"/>
</svg>
