<svg width="40" height="40" viewBox="0 0 40 40" fill="none" xmlns="http://www.w3.org/2000/svg">
<path d="M25.9143 40H14.0857C2.89571 40 0 37.1043 0 25.9143V14.0857C0 2.89571 2.89571 0 14.0857 0H25.9129C37.1043 0 40 2.89571 40 14.0857V25.9143C40 37.1043 37.1043 40 25.9143 40ZM14.0857 1.42857C3.67571 1.42857 1.42857 3.67571 1.42857 14.0857V25.9143C1.42857 36.3243 3.67571 38.5714 14.0857 38.5714H25.9129C36.3229 38.5714 38.57 36.3243 38.57 25.9143V14.0857C38.5714 3.67571 36.3243 1.42857 25.9143 1.42857H14.0857Z" fill="white"/>
<path d="M33.1699 29.823H30.0441C28.887 29.823 28.307 29.1759 27.3427 28.1044C26.9627 27.683 26.497 27.1644 25.8784 26.5444C24.1727 24.9001 23.4499 24.7344 23.1841 24.7344C23.1741 24.8044 23.1656 24.9159 23.1656 25.0901V27.893C23.1656 29.4944 21.9884 29.823 20.2184 29.823C16.5099 29.823 12.727 27.5701 10.0984 23.7973C6.31269 18.4901 5.03697 14.1758 5.03697 13.023C5.03697 12.0073 5.6884 11.4244 6.82269 11.4244H9.9484C11.3198 11.4244 11.7384 12.3001 12.0227 13.1201C13.4298 17.2216 15.5041 20.2773 16.367 20.8873C16.3741 20.7944 16.3799 20.6716 16.3799 20.5059V15.903C16.3213 14.8616 15.9756 14.433 15.6699 14.0558C15.4199 13.7473 15.137 13.3973 15.137 12.8573C15.137 12.1687 15.7141 11.4244 16.647 11.4244H21.5584C22.2927 11.4244 23.1656 11.7473 23.1656 13.2873V19.4801C23.1656 19.5087 23.167 19.5344 23.1684 19.5587C23.3299 19.4473 23.5599 19.2373 23.8899 18.9087C26.0027 16.5444 27.5599 12.7887 27.5756 12.7501C27.9484 11.8787 28.6456 11.423 29.597 11.423H32.7227C33.3984 11.423 33.8913 11.6258 34.187 12.023C34.3841 12.2873 34.5727 12.7573 34.3527 13.4916C33.9499 15.3473 30.4427 20.3244 30.0427 20.8859C30.0127 20.9359 29.8913 21.133 29.8756 21.2001C29.8799 21.2001 29.9056 21.2701 30.0241 21.4244C30.1684 21.623 30.5241 21.9716 30.8684 22.3101C31.2941 22.7273 31.7756 23.2001 32.1584 23.653C33.8441 25.5487 34.6484 26.6844 34.9299 27.5587C35.1641 28.3673 34.957 28.8759 34.7399 29.163C34.5184 29.4659 34.0641 29.823 33.1699 29.823ZM23.2699 23.3044C23.9156 23.3044 24.8499 23.5687 26.8784 25.5244C27.5299 26.1759 28.0127 26.7116 28.4056 27.1487C29.3399 28.1901 29.567 28.3944 30.0427 28.3944H33.1684C33.4641 28.3944 33.5841 28.3273 33.5999 28.3087C33.5999 28.3087 33.6356 28.2216 33.5656 27.9801C33.3027 27.163 32.0999 25.7387 31.0813 24.5916C30.7141 24.1573 30.267 23.7201 29.8699 23.333C29.4284 22.9016 29.0813 22.5601 28.8827 22.283C28.1713 21.3673 28.4499 20.7516 28.857 20.0973C29.9156 18.603 32.6699 14.513 32.9713 13.1373C33.0127 12.9916 33.0227 12.9116 33.0227 12.873C32.997 12.8758 32.9013 12.8544 32.7227 12.8544H29.597C29.1699 12.8544 29.0156 13.0201 28.8941 13.3044C28.8313 13.4573 27.2341 17.313 24.9284 19.8916C24.1941 20.6273 23.6756 21.0901 22.9384 21.0901C22.3599 21.0901 21.737 20.5859 21.737 19.4816V13.2887C21.737 13.0144 21.7041 12.8987 21.6884 12.8587C21.6727 12.8644 21.6341 12.8558 21.5584 12.8544H16.647C16.577 12.9087 16.6999 13.0601 16.7813 13.1601C17.157 13.6244 17.7227 14.3259 17.8084 15.8659L17.8099 20.5087C17.8099 21.0787 17.8099 22.4159 16.5156 22.4159C14.6827 22.4159 11.9455 17.2887 10.6741 13.5887C10.4198 12.8558 10.3013 12.8558 9.94983 12.8558H6.82411C6.54411 12.8558 6.46126 12.9101 6.46126 12.9101C6.46697 13.5258 7.35269 17.4873 11.267 22.9759C13.6327 26.3716 16.977 28.3959 20.2199 28.3959C21.7384 28.3959 21.7384 28.1859 21.7384 27.8944V25.0916C21.7384 24.2073 21.9199 23.3044 23.2699 23.3044Z" fill="white"/>
</svg>
