<svg width="40" height="40" viewBox="0 0 40 40" fill="none" xmlns="http://www.w3.org/2000/svg">
<path d="M20.0053 40C16.1813 40 12.4773 38.9187 9.272 36.8707L2.14133 39.1493C1.90267 39.2253 1.64 39.1613 1.46267 38.9827C1.28667 38.804 1.22533 38.54 1.30667 38.3027L3.60667 31.4413C1.24667 28.0813 0 24.1333 0 20C0 14.5653 2.14933 9.47867 6.052 5.67733C6.31467 5.42133 6.73733 5.42667 6.99467 5.68933C7.25067 5.95333 7.24533 6.376 6.98133 6.632C3.34 10.1813 1.33333 14.928 1.33333 20C1.33333 23.9653 2.56267 27.748 4.88667 30.9387C5.01333 31.1133 5.048 31.3387 4.97867 31.544L2.98933 37.48L9.16667 35.5053C9.35867 35.4427 9.56933 35.4733 9.73867 35.584C12.7853 37.6 16.336 38.6667 20.0053 38.6667C30.296 38.6667 38.6667 30.2933 38.6667 20C38.6667 9.708 30.296 1.33333 20.0053 1.33333H20.0013C17.112 1.33333 14.3507 1.97467 11.7827 3.23867C11.452 3.4 11.0533 3.26533 10.8907 2.936C10.728 2.60667 10.8627 2.20533 11.1947 2.04267C13.9467 0.688 16.9093 0 19.9947 0C31.0293 0 40 8.972 40 20C40 31.028 31.0293 40 20.0053 40Z" fill="white"/>
<path d="M26.136 31.3237C24.788 31.3237 22.9067 30.8037 20.2173 29.6891C16.7067 28.2357 13.2267 25.1904 10.4174 21.1171L10.3174 20.9744C9.38939 19.7064 7.88672 17.2771 7.88672 14.7411C7.88672 11.7691 9.37339 10.2611 10.0094 9.61712C10.6081 9.00245 11.5027 8.67579 12.5081 8.67579C12.7614 8.67579 12.9881 8.68779 13.1947 8.69979C14.0413 8.73312 14.532 8.94645 14.9987 10.0625L15.4827 11.2358C15.9947 12.4771 16.6253 14.0091 16.724 14.2157C16.8333 14.4411 17.1653 15.1331 16.796 15.8531C16.5987 16.2744 16.4053 16.4971 16.14 16.8037C15.9533 17.0184 15.8293 17.1517 15.7027 17.2851C15.556 17.4424 15.4067 17.5971 15.2573 17.7851C15 18.0864 15 18.0864 15.0867 18.2371C15.58 19.0704 16.6293 20.6704 18.0907 21.9704C19.9867 23.6571 21.5187 24.2771 22.2547 24.5757L22.4373 24.6504C22.6307 24.7304 22.8747 24.7877 23.0573 24.5944C23.388 24.2384 23.8067 23.6531 24.2493 23.0331L24.5147 22.6611C24.98 22.0037 25.5533 21.8651 25.952 21.8651C26.1853 21.8651 26.428 21.9117 26.676 22.0051C27.296 22.2211 30.5587 23.8464 30.592 23.8624L30.9053 24.0157C31.372 24.2397 31.74 24.4171 31.9507 24.7877C32.256 25.3184 32.136 26.7104 31.672 28.0237C31.116 29.5957 29.0493 30.8237 27.388 31.1811C27.0573 31.2504 26.664 31.3237 26.136 31.3237ZM12.5067 10.0091C11.8774 10.0091 11.3041 10.1985 11.0081 10.5011C10.3934 11.1251 9.21872 12.3158 9.21872 14.7411C9.21872 16.3157 9.99872 18.2851 11.3587 20.1424L11.5134 20.3624C14.1773 24.2264 17.4493 27.1024 20.7253 28.4584C23.2493 29.5051 24.968 29.9917 26.1347 29.9917C26.5347 29.9917 26.832 29.9357 27.104 29.8784C28.4013 29.5984 30.0347 28.6397 30.4093 27.5797C30.8147 26.4371 30.8067 25.5584 30.7587 25.3837C30.756 25.4251 30.516 25.3117 30.3227 25.2184L29.9907 25.0557C29.056 24.5877 26.64 23.4077 26.2173 23.2597C26.1053 23.2171 26.02 23.1997 25.948 23.1997C25.888 23.1997 25.764 23.1997 25.596 23.4371L25.3293 23.8104C24.8613 24.4664 24.42 25.0851 24.028 25.5064C23.5253 26.0437 22.6627 26.1931 21.92 25.8837L21.7507 25.8144C21.008 25.5144 19.268 24.8104 17.2 22.9704C15.6053 21.5491 14.468 19.8197 13.932 18.9144C13.368 17.9424 13.94 17.2731 14.2147 16.9517C14.3893 16.7344 14.56 16.5544 14.7307 16.3731C14.8427 16.2544 14.9547 16.1357 15.0693 16.0024C15.3693 15.6571 15.468 15.5424 15.5973 15.2664C15.636 15.1904 15.6573 15.0824 15.5187 14.7944C15.4173 14.5811 14.7693 13.0158 14.248 11.7465L13.7653 10.5771C13.5453 10.0491 13.5453 10.0491 13.1267 10.0331C12.9347 10.0198 12.7321 10.0091 12.5067 10.0091Z" fill="white"/>
<path d="M8.66667 4.66667C9.03485 4.66667 9.33333 4.36819 9.33333 4C9.33333 3.63181 9.03485 3.33333 8.66667 3.33333C8.29848 3.33333 8 3.63181 8 4C8 4.36819 8.29848 4.66667 8.66667 4.66667Z" fill="white"/>
</svg>
