<svg width="40" height="40" viewBox="0 0 40 40" fill="none" xmlns="http://www.w3.org/2000/svg">
<g clip-path="url(#clip0_171_21)">
<path d="M25.9143 40H14.0857C2.89571 40 0 37.1043 0 25.9143V14.0857C0 2.89571 2.89571 0 14.0857 0H25.9129C37.1043 0 40 2.89571 40 14.0857V25.9143C40 37.1043 37.1043 40 25.9143 40ZM14.0857 1.42857C3.67571 1.42857 1.42857 3.67571 1.42857 14.0857V25.9143C1.42857 36.3243 3.67571 38.5714 14.0857 38.5714H25.9129C36.3229 38.5714 38.57 36.3243 38.57 25.9143V14.0857C38.5714 3.67571 36.3243 1.42857 25.9143 1.42857H14.0857Z" fill="white"/>
<path d="M15.0014 27.9663C15.0015 28.7864 15.9344 29.2577 16.5946 28.7713L27.4008 20.8093C27.9421 20.4105 27.9434 19.6017 27.4034 19.2011L16.5959 11.184C15.936 10.6945 15.0001 11.1655 15.0001 11.9872L15.0014 27.9663Z" stroke="white" stroke-width="1.5"/>
</g>
<defs>
<clipPath id="clip0_171_21">
<rect width="40" height="40" fill="white"/>
</clipPath>
</defs>
</svg>
